# xmcd
# Copyright (C) 1995-1998 Ti Kan
#
# Track frame offsets:
#       151
#       2682
#       16156
#       34904
#       46745
#       54902
#       68501
#       87020
#       99927
#       108947
#       128327
#       143302
#       161765
#       172877
#       186340
#       198197
#       212170
#       228450
#       241957
#       247990
#       265146
#
# Disc length: 3749 seconds
#
# Revision: 0
# Processed by: cddbd v1.5.2PL0 Copyright (c) Steve Scherf et al.
# Submitted via: CD-Transfer v1.0
#
DISCID=f90ea315
DTITLE=Beastie Boys - Beastie Boys
DYEAR=1900
DGENRE=
TTITLE0=Biz Vs. The Nug, The
TTITLE1=Sabotage
TTITLE2=Shadrach
TTITLE3=Brass Monkey
TTITLE4=Time For Livin'
TTITLE5=Dub The Mic
TTITLE6=Benny And The Jets
TTITLE7=Negotiation Limerick File, The
TTITLE8=I Want Some
TTITLE9=She's On It
TTITLE10=Son Of Neckbone
TTITLE11=Get It Together
TTITLE12=Twenty Questions
TTITLE13=Remote Control
TTITLE14=Railroad Blues
TTITLE15=Live Wire
TTITLE16=So What'cha Want
TTITLE17=Netty's Girl
TTITLE18=Egg Raid On Mojo
TTITLE19=Hey Ladies
TTITLE20=Intergalactic
EXTD=
EXTT0=
EXTT1=
EXTT2=
EXTT3=
EXTT4=
EXTT5=
EXTT6=
EXTT7=
EXTT8=
EXTT9=
EXTT10=
EXTT11=
EXTT12=
EXTT13=
EXTT14=
EXTT15=
EXTT16=
EXTT17=
EXTT18=
EXTT19=
EXTT20=
PLAYORDER=
